<?xml version="1.0" encoding="utf-8"?>
<!-- Generator: Adobe Illustrator 26.1.0, SVG Export Plug-In . SVG Version: 6.00 Build 0)  -->
<svg  width="19px" height="15px" version="1.1" id="レイヤー_1" xmlns="http://www.w3.org/2000/svg" xmlns:xlink="http://www.w3.org/1999/xlink" x="0px"
	 y="0px" viewBox="0 0 30 30" style="enable-background:new 0 0 30 30;" xml:space="preserve">
<style type="text/css">
	.st0{fill:#000033;}
	.st1{fill:#FFFFFF;}
</style>
<g>
	<path class="st1" d="M25.77,30H4.23C1.89,30,0,28.11,0,25.77V4.23C0,1.89,1.89,0,4.23,0h21.54C28.11,0,30,1.89,30,4.23v21.54
		C30,28.11,28.11,30,25.77,30z"/>
	<g>
		<path class="st0" d="M5.79,18.53l-1.78,4.19h-1.8L9.01,7.26l6.63,15.45h-1.82l-1.74-4.19H5.79z M8.97,11.1l-2.52,5.91h4.99
			L8.97,11.1z"/>
		<path class="st0" d="M13.83,7.54h2.78c2.21,0,4.01,0.3,5.75,1.83c1.68,1.49,2.45,3.53,2.45,5.78c0,2.22-0.78,4.17-2.41,5.66
			c-1.76,1.61-3.52,1.91-5.83,1.91h-2.74V7.54z M16.66,21.16c1.8,0,3.31-0.26,4.66-1.57c1.21-1.17,1.84-2.76,1.84-4.45
			c0-1.73-0.65-3.41-1.92-4.55c-1.35-1.23-2.84-1.47-4.58-1.47h-1.19v12.05H16.66z"/>
		<path class="st0" d="M16.82,7.54h2.78c2.21,0,4.01,0.3,5.75,1.83c1.68,1.49,2.45,3.53,2.45,5.78c0,2.22-0.78,4.17-2.41,5.66
			c-1.76,1.61-3.52,1.91-5.83,1.91h-2.74V7.54z M19.66,21.16c1.8,0,3.31-0.26,4.66-1.57c1.21-1.17,1.84-2.76,1.84-4.45
			c0-1.73-0.65-3.41-1.92-4.55c-1.35-1.23-2.84-1.47-4.58-1.47h-1.19v12.05H19.66z"/>
	</g>
</g>
</svg>
