<?xml version="1.0" encoding="utf-8"?>
<!-- Generator: Adobe Illustrator 26.1.0, SVG Export Plug-In . SVG Version: 6.00 Build 0)  -->
<svg width="19px" height="15px" version="1.1" id="レイヤー_1" xmlns="http://www.w3.org/2000/svg" xmlns:xlink="http://www.w3.org/1999/xlink" x="0px"
	 y="0px" viewBox="0 0 5 5" style="enable-background:new 0 0 30 30;" xml:space="preserve">
<style type="text/css">
	.st0{fill:#000033;}
	.st1{fill:#FFFFFF;}
</style>
<g>
	<path class="st1" d="M25.77,30H4.23C1.89,30,0,28.11,0,25.77V4.23C0,1.89,1.89,0,4.23,0h21.54C28.11,0,30,1.89,30,4.23v21.54
		C30,28.11,28.11,30,25.77,30z"/>
	<g>
		<path class="st0" d="M4.82,18.23l-1.63,3.83H1.54L7.77,7.92l6.07,14.14h-1.66l-1.59-3.83H4.82z M7.74,11.43l-2.31,5.4h4.56
			L7.74,11.43z"/>
		<path class="st0" d="M12.17,8.18h2.54c2.02,0,3.67,0.28,5.26,1.68c1.54,1.36,2.24,3.23,2.24,5.29c0,2.03-0.72,3.82-2.2,5.18
			c-1.61,1.47-3.22,1.75-5.33,1.75h-2.51V8.18z M14.77,20.64c1.65,0,3.02-0.24,4.26-1.44c1.11-1.07,1.68-2.53,1.68-4.07
			c0-1.59-0.59-3.12-1.75-4.17c-1.23-1.12-2.59-1.35-4.19-1.35h-1.09v11.02H14.77z"/>
		<path class="st0" d="M23.71,22.08h-1.5V9.61H13.5V8.18h14.96v1.44h-4.75V22.08z"/>
	</g>
</g>
</svg>
