<?xml version="1.0" encoding="utf-8"?>
<!-- Generator: Adobe Illustrator 26.1.0, SVG Export Plug-In . SVG Version: 6.00 Build 0)  -->
<svg version="1.1" id="レイヤー_1" xmlns="http://www.w3.org/2000/svg" xmlns:xlink="http://www.w3.org/1999/xlink" x="0px"
	 y="0px" viewBox="0 0 30 30" style="enable-background:new 0 0 30 30;" xml:space="preserve">
<style type="text/css">
	.st0{fill:#000033;}
	.st1{fill:#FFFFFF;}
</style>
<path class="st1" d="M29,30H1c-0.55,0-1-0.45-1-1V1c0-0.55,0.45-1,1-1h28c0.55,0,1,0.45,1,1v28C30,29.55,29.55,30,29,30z"/>
<path class="st0" d="M27.5,28.5h-25c-0.55,0-1-0.45-1-1v-25c0-0.55,0.45-1,1-1h25c0.55,0,1,0.45,1,1v25
	C28.5,28.05,28.05,28.5,27.5,28.5z"/>
<g>
	<path class="st1" d="M6.27,17.77l-1.4,3.28H3.47L8.8,8.94L14,21.05h-1.43l-1.37-3.28H6.27z M8.77,11.94L6.8,16.57h3.91L8.77,11.94z
		"/>
	<path class="st1" d="M12.58,9.15h2.18c1.73,0,3.14,0.24,4.51,1.44c1.32,1.17,1.92,2.76,1.92,4.53c0,1.74-0.61,3.27-1.89,4.44
		c-1.38,1.26-2.76,1.5-4.57,1.5h-2.15V9.15z M14.8,19.83c1.41,0,2.59-0.21,3.65-1.23c0.95-0.92,1.44-2.16,1.44-3.49
		c0-1.36-0.51-2.67-1.5-3.57c-1.06-0.96-2.22-1.15-3.59-1.15h-0.94v9.45H14.8z"/>
	<path class="st1" d="M22.46,21.06h-1.29V10.38h-7.46V9.15h12.82v1.23h-4.07V21.06z"/>
</g>
</svg>
