<?xml version="1.0" encoding="utf-8"?>
<!-- Generator: Adobe Illustrator 26.1.0, SVG Export Plug-In . SVG Version: 6.00 Build 0)  -->
<svg version="1.1" id="レイヤー_1" xmlns="http://www.w3.org/2000/svg" xmlns:xlink="http://www.w3.org/1999/xlink" x="0px"
	 y="0px" viewBox="0 0 30 30" style="enable-background:new 0 0 30 30;" xml:space="preserve">
<style type="text/css">
	.st0{fill:#000033;}
	.st1{fill:#FFFFFF;}
</style>
<path class="st1" d="M29,30H1c-0.55,0-1-0.45-1-1V1c0-0.55,0.45-1,1-1h28c0.55,0,1,0.45,1,1v28C30,29.55,29.55,30,29,30z"/>
<path class="st0" d="M27.5,28.5h-25c-0.55,0-1-0.45-1-1v-25c0-0.55,0.45-1,1-1h25c0.55,0,1,0.45,1,1v25
	C28.5,28.05,28.05,28.5,27.5,28.5z"/>
<g>
	<path class="st1" d="M16.69,5.79L8.82,24.3H4.17l8.2-18.62"/>
	<path class="st1" d="M12.37,5.68h3.41c2.71,0,4.92,0.37,7.05,2.25c2.06,1.83,3,4.33,3,7.09c0,2.72-0.96,5.12-2.95,6.95
		c-2.16,1.98-4.32,2.35-7.15,2.35h-3.36V5.68z"/>
	<path class="st0" d="M16.25,9.57c1.98,0.04,3,0.38,4.02,1.28c1.13,1,1.68,2.37,1.68,4.18c0,1.7-0.55,3.04-1.7,4.09
		c-1.04,0.95-1.98,1.28-4.01,1.32V9.57z"/>
</g>
</svg>
