<?xml version="1.0" encoding="utf-8"?>
<!-- Generator: Adobe Illustrator 26.1.0, SVG Export Plug-In . SVG Version: 6.00 Build 0)  -->
<svg version="1.1" id="レイヤー_1" xmlns="http://www.w3.org/2000/svg" xmlns:xlink="http://www.w3.org/1999/xlink" x="0px"
	 y="0px" viewBox="0 0 30 30" style="enable-background:new 0 0 30 30;" xml:space="preserve">
<style type="text/css">
	.st0{fill:#000033;}
	.st1{fill:#FFFFFF;}
</style>
<path class="st1" d="M29,30H1c-0.55,0-1-0.45-1-1V1c0-0.55,0.45-1,1-1h28c0.55,0,1,0.45,1,1v28C30,29.55,29.55,30,29,30z"/>
<path class="st0" d="M27.5,28.5h-25c-0.55,0-1-0.45-1-1v-25c0-0.55,0.45-1,1-1h25c0.55,0,1,0.45,1,1v25
	C28.5,28.05,28.05,28.5,27.5,28.5z"/>
<g>
	<path class="st1" d="M6.97,18.08l-1.55,3.65H3.85L9.78,8.26l5.78,13.47h-1.59l-1.52-3.65H6.97z M9.75,11.6l-2.2,5.15h4.35
		L9.75,11.6z"/>
	<path class="st1" d="M13.98,8.5h2.42c1.93,0,3.5,0.26,5.01,1.6c1.47,1.3,2.13,3.07,2.13,5.04c0,1.93-0.68,3.64-2.1,4.94
		c-1.53,1.41-3.07,1.67-5.08,1.67h-2.39V8.5z M16.45,20.37c1.57,0,2.88-0.23,4.06-1.37c1.06-1.02,1.6-2.41,1.6-3.88
		c0-1.51-0.56-2.97-1.67-3.97c-1.18-1.07-2.47-1.28-3.99-1.28h-1.04v10.5H16.45z"/>
	<path class="st1" d="M16.59,8.5h2.42c1.93,0,3.5,0.26,5.01,1.6c1.47,1.3,2.13,3.07,2.13,5.04c0,1.93-0.68,3.64-2.1,4.94
		c-1.53,1.41-3.07,1.67-5.08,1.67h-2.39V8.5z M19.06,20.37c1.57,0,2.88-0.23,4.06-1.37c1.06-1.02,1.6-2.41,1.6-3.88
		c0-1.51-0.56-2.97-1.67-3.97c-1.18-1.07-2.47-1.28-3.99-1.28h-1.04v10.5H19.06z"/>
</g>
</svg>
